<svg xmlns="http://www.w3.org/2000/svg" width="853" height="480" fill="none"><path fill="#34A853" d="M398.558 228.834c0-15.125 12.261-27.387 27.386-27.387H664.22c15.125 0 27.386 12.262 27.386 27.387v126.324c0 15.125-12.261 27.387-27.386 27.387H425.944c-15.125 0-27.386-12.262-27.386-27.387V228.834Z"/><path fill="#fff" d="M412.826 232.876c0-10.084 8.174-18.258 18.258-18.258H659.08c10.084 0 18.258 8.174 18.258 18.258v118.24c0 10.084-8.174 18.258-18.258 18.258H431.084c-10.084 0-18.258-8.174-18.258-18.258v-118.24Z"/><path fill="#34A853" d="M364.533 394.069c0-6.365 5.16-11.524 11.525-11.524h336.951c6.365 0 11.524 5.159 11.524 11.524 0 6.365-5.159 11.525-11.524 11.525H376.058c-6.365 0-11.525-5.16-11.525-11.525Z"/><path fill="#C6FF00" d="M498.436 382.545h92.195a8.78 8.78 0 0 1-8.781 8.78h-74.634a8.78 8.78 0 0 1-8.78-8.78Z"/><path stroke="#0D652D" stroke-linecap="round" stroke-linejoin="round" stroke-width="4.39" d="M415.021 381.447h259.024"/><rect width="278.154" height="182.508" x="182.467" y="76.406" fill="#fff" stroke="#AECBFA" stroke-width="4" rx="15.417"/><path fill="#4285F4" d="M180.467 91.823c0-9.619 7.798-17.417 17.417-17.417H445.05c9.619 0 17.417 7.798 17.417 17.417v14.583h-282V91.823Z"/><circle cx="199.467" cy="90.406" r="7" fill="#C6FF00"/><circle cx="219.467" cy="90.406" r="7" fill="#fff"/><rect width="102" height="8" x="197.467" y="121.406" fill="#CEEAD6" rx="4"/><rect width="75" height="8" x="197.467" y="139.406" fill="#CEEAD6" rx="4"/><circle cx="415.021" cy="231.52" r="100" fill="#E6F4EA"/><mask id="a" width="105" height="111" x="363" y="176" maskUnits="userSpaceOnUse" style="mask-type:alpha"><path fill="#1D1D1B" d="M461.721 198.635a9.646 9.646 0 0 1 5.3 8.612v48.55a9.646 9.646 0 0 1-5.301 8.612l-42.354 21.367a9.642 9.642 0 0 1-8.689 0l-42.354-21.367a9.646 9.646 0 0 1-5.302-8.612v-48.55a9.647 9.647 0 0 1 5.301-8.612l42.353-21.375a9.644 9.644 0 0 1 8.693 0l42.353 21.375Z"/></mask><g mask="url(#a)"><path fill="#34A853" d="M411.146 176.979a8.667 8.667 0 0 1 7.752 0l48.124 24.062-52 26.245-52.001-26.245 48.125-24.062Z"/><path fill="#000" d="m363.021 201.041 52.001 26.234v60.668l-47.237-23.831a8.666 8.666 0 0 1-4.764-7.738v-55.333Z"/><path fill="#4285F4" d="m467.021 201.041-52 26.234v60.668l47.237-23.831a8.666 8.666 0 0 0 4.763-7.738v-55.333Z"/></g><path fill="#1D1D1B" d="M437.564 207.909a13.869 13.869 0 0 1 7.619 12.38v17.955a13.867 13.867 0 0 1-7.621 12.38l-16.275 8.211a13.872 13.872 0 0 1-12.492 0l-16.274-8.211a13.865 13.865 0 0 1-7.621-12.38v-17.955a13.867 13.867 0 0 1 7.619-12.38l16.274-8.213a13.868 13.868 0 0 1 12.496 0l16.275 8.213Z" opacity=".5"/><path fill="#2F5187" d="M415.041 260.322v-33.049l-28.123-14.187a13.854 13.854 0 0 0-2.018 7.204v17.955a13.865 13.865 0 0 0 7.621 12.38l16.274 8.211a13.862 13.862 0 0 0 6.246 1.486Z" opacity=".5"/><path fill="#E6F4EA" d="M431.279 215.69a6.932 6.932 0 0 1 3.81 6.19v14.773a6.934 6.934 0 0 1-3.811 6.191l-13.125 6.621a6.933 6.933 0 0 1-6.246 0l-13.125-6.621a6.934 6.934 0 0 1-3.811-6.191V221.88a6.934 6.934 0 0 1 3.81-6.19l13.125-6.624a6.937 6.937 0 0 1 6.248 0l13.125 6.624Z"/><path fill="#0D652D" d="M156.256 277.754h48.421v36.842c0 13.371-10.839 24.211-24.21 24.211s-24.211-10.84-24.211-24.211v-36.842Z"/><path fill="#C6FF00" fill-rule="evenodd" d="M204.673 297.937c21.081-9.305 35.794-30.392 35.794-54.916 0-33.137-26.863-60-60-60s-60 26.863-60 60c0 24.52 14.709 45.605 35.785 54.913v11.407h48.421v-11.404Z" clip-rule="evenodd"/><path stroke="#0D652D" stroke-width="3.123" d="M174.52 309.341c.517-33.232.757-47.96.778-79.474.002-2.608-2.113-4.737-4.722-4.737h-1.17a4.723 4.723 0 0 0-4.723 4.724v37.495a4.722 4.722 0 0 0 4.723 4.723h21.079a4.723 4.723 0 0 0 4.724-4.723v-37.495a4.724 4.724 0 0 0-4.724-4.724h-.561a4.724 4.724 0 0 0-4.723 4.724v79.487"/><path stroke="#fff" stroke-linecap="round" stroke-width="12.494" d="M190.924 203.083c9.002 1.9 18.068 7.247 24.117 17.134"/><path fill="#34A853" d="m647.551 178.912-27.49 102.595-54.085-14.492 27.49-102.595 54.085 14.492Z"/><path fill="#E8F0FE" fill-rule="evenodd" d="M620.065 281.505a9.012 9.012 0 0 1-3.23 4.832l-22.9 21.56c-6.103 5.745-16.118 3.062-18.53-4.965l-9.067-30.17a9.01 9.01 0 0 1-.361-5.749c1.311-4.893 6.417-7.776 11.404-6.439 4.987 1.336 7.967 6.384 6.658 11.276l.004.001c1.314-4.888 6.395-7.773 11.353-6.445 4.939 1.323 7.893 6.33 6.623 11.203 1.335-4.858 6.421-7.713 11.389-6.382 4.988 1.336 7.968 6.386 6.657 11.278Z" clip-rule="evenodd"/><path fill="#202124" d="M585.607 315.75c-2.272 2.138-6.001 1.135-6.893-1.854l-4.727-15.83s4.579-3.99 13.139-1.696c8.559 2.293 10.53 8.038 10.53 8.038l-12.049 11.342Z"/><path stroke="#202124" stroke-linecap="round" stroke-width="4" d="m602.414 275.533 24.18-90.242M584.256 270.667l24.18-90.242"/><path fill="#E8F0FE" d="m593.398 164.701 54.085 14.492-2.921 10.903-54.086-14.492z"/><g clip-path="url(#b)"><path fill="#34A853" d="m647.718 177.678.036-.344a28.106 28.106 0 0 0-.034-5.787 28.07 28.07 0 0 0-1.612-6.777 28.159 28.159 0 0 0-3.107-6.005 28.143 28.143 0 0 0-2.713-3.396l.044-.044 2.396-2.389 2.341-2.332 1.68-1.675a2.574 2.574 0 0 0-3.631-3.649l-1.68 1.676-2.341 2.332c-.798.797-1.597 1.592-2.396 2.388l-.262.262-.221-.164a28.1 28.1 0 0 0-9.489-4.443 28.084 28.084 0 0 0-9.07-.818c-.344.025-.686.058-1.027.097l-.09-.334c-.293-1.089-.588-2.177-.88-3.266a5166.288 5166.288 0 0 1-1.479-5.482 2.567 2.567 0 0 0-1.567-1.732 2.554 2.554 0 0 0-1.616-.073 2.562 2.562 0 0 0-1.532 1.195 2.58 2.58 0 0 0-.254 1.955l.618 2.291.861 3.19.88 3.266.007.027a28.394 28.394 0 0 0-5.873 2.537 28.38 28.38 0 0 0-3.922 2.713 28.035 28.035 0 0 0-6.755 8.155 28.343 28.343 0 0 0-1.568 3.367l54.088 14.493c.064-.412.119-.822.164-1.233l.004-.001Z"/><path fill="#202124" d="M636.58 167.954c1.275-.431 1.879-2.056 1.349-3.629-.531-1.574-1.994-2.501-3.269-2.07-1.276.431-1.88 2.055-1.349 3.629.53 1.574 1.994 2.501 3.269 2.07ZM612.354 160.274c1.246-1.098 1.535-2.807.646-3.818-.889-1.01-2.62-.94-3.866.158-1.246 1.098-1.536 2.807-.647 3.817.89 1.011 2.62.94 3.867-.157Z"/></g><defs><clipPath id="b"><path fill="#fff" d="m601.909 132.913 54.088 14.493-8.442 31.505-54.088-14.492z"/></clipPath></defs></svg>